<svg xmlns:dc="http://purl.org/dc/elements/1.1/" xmlns:cc="http://creativecommons.org/ns#" xmlns:rdf="http://www.w3.org/1999/02/22-rdf-syntax-ns#" xmlns:svg="http://www.w3.org/2000/svg" xmlns="http://www.w3.org/2000/svg" version="1.1" viewBox="0 0 16.933334 21.166666250000002" x="0px" y="0px"><g transform="translate(0,-152.4)" style="display:inline;opacity:1"><path transform="matrix(0.26458333,0,0,0.26458333,0,152.4)" d="M 32,6 A 26,26 0 0 0 6,32 26,26 0 0 0 32,58 26,26 0 0 0 58,32 26,26 0 0 0 32,6 Z m 0,7 a 7.0000003,7.0000003 0 0 1 7,7 7.0000003,7.0000003 0 0 1 -7,7 7.0000003,7.0000003 0 0 1 -7,-7 7.0000003,7.0000003 0 0 1 7,-7 z m 0,21 A 23,23 0 0 1 48.650391,41.148438 18.999998,18.999998 0 0 1 32,51 18.999998,18.999998 0 0 1 15.371094,41.150391 23,23 0 0 1 32,34 Z" style="opacity:1;vector-effect:none;fill:#000000;fill-opacity:1;fill-rule:evenodd;stroke:none;stroke-width:1.02999163;stroke-linecap:square;stroke-linejoin:round;stroke-miterlimit:4;stroke-dasharray:none;stroke-dashoffset:0;stroke-opacity:1;paint-order:fill markers stroke"/></g><text x="0" y="31.933333" fill="#000000" font-size="5px" font-weight="bold" font-family="'Helvetica Neue', Helvetica, Arial-Unicode, Arial, Sans-serif">Created by Warunk Icon</text><text x="0" y="36.933333000000005" fill="#000000" font-size="5px" font-weight="bold" font-family="'Helvetica Neue', Helvetica, Arial-Unicode, Arial, Sans-serif">from the Noun Project</text></svg>