<svg xmlns="http://www.w3.org/2000/svg" xmlns:xlink="http://www.w3.org/1999/xlink" version="1.1" x="0px" y="0px" viewBox="0 0 100 125" enable-background="new 0 0 100 100" xml:space="preserve"><path d="M98.8,56.7c-1.3-1.9-2.8-4.7-4.2-7.5c-1.4-2.7-2.5-7.3-2.5-10.3L92,37.9C90.8,19.9,75.1,5.7,56.5,7.1  c-11,0.8-20.6,7.1-26,16.1l6.4,1.8l11.5,12.8l7.2,8.4h-29l-0.4-0.8c0.2,1,0.4,2,0.6,2.9l27.5,0.2L34.7,58.8l-2.2,1.3  c0.4,0.6,0.9,1.2,1.4,1.7v14.9c0,1.4,0.9,2.7,2.2,3.1l38.2,13c1.4,0.5,2.9-0.6,2.9-2.1v-8h9.1c3.2,0,5.8-2.6,5.8-5.8V61.1h4.3  C98.7,61.1,100.1,58.6,98.8,56.7z M58.5,46.2l-9.8-11.4l18.9-6.3l-4.4,8.4L58.5,46.2z M65.4,37.2l4.4-8.4l9.4,8.7L65.4,37.2z   M23.9,46.2L0.7,28.5L14,28.2L23.9,46.2z M26.1,45.4l-9.5-17.2l-5.9-10.7l19.8,5.6c-2.9,4.8-4.6,10.3-4.8,16.1  C25.7,41.3,25.8,43.4,26.1,45.4z M26.7,48.3c1.1,4.3,3.1,8.3,5.7,11.8L10.3,72.9l16.4-24.5L26.7,48.3z"/><text x="0" y="115" fill="#000000" font-size="5px" font-weight="bold" font-family="'Helvetica Neue', Helvetica, Arial-Unicode, Arial, Sans-serif">Created by Gregor Cresnar</text><text x="0" y="120" fill="#000000" font-size="5px" font-weight="bold" font-family="'Helvetica Neue', Helvetica, Arial-Unicode, Arial, Sans-serif">from the Noun Project</text></svg>