<svg xmlns="http://www.w3.org/2000/svg" version="1.1" viewBox="-5.0 -10.0 110.0 135.0">
 <path d="m67.57 76.93h2.5508v3.8906h-6.8203v-8.2891l0.85938 0.35938 0.28906 1.4805c0.30078 1.4883 1.6016 2.5586 3.1211 2.5586zm-3.1211-40.73c0.28906-1.4883 1.5898-2.5586 3.1094-2.5586h2.5508v-0.92969c0-0.39844-0.078125-0.76172-0.23047-1.1016-0.33984-0.76953-1.1602-1.5117-1.9297-1.8203-0.39062-0.16016-0.82812-0.25-1.2812-0.25h-6.9688c-0.89844 0-1.7188-0.37109-2.3086-0.96094s-0.96094-1.4102-0.96094-2.3086v-6.9688c0-0.46094-0.089844-0.89062-0.25-1.2812-0.30859-0.76953-1.0508-1.5898-1.8203-1.9297-0.32812-0.14844-0.69922-0.23047-1.1016-0.23047h-25.887c-0.64844 0-1.1797-0.53125-1.1797-1.1797 0-0.64844 0.53125-1.1797 1.1797-1.1797h6.1289c-0.21094-0.82031-0.64062-1.5508-1.2188-2.1289-0.85156-0.85156-2.0195-1.3711-3.3008-1.3711-1.2891 0-2.4492 0.53125-3.3008 1.3711-0.85156 0.85156-1.3711 2.0195-1.3711 3.3008v15.93c0 0.89844 0.37109 1.7188 0.96094 2.3086 0.58984 0.58984 1.4102 0.96094 2.3086 0.96094s1.7188-0.37109 2.3086-0.96094c0.58984-0.58984 0.96094-1.4102 0.96094-2.3086v-9.9883c0-0.35938-0.14844-0.69141-0.39062-0.92969-0.23828-0.23828-0.57031-0.39062-0.92969-0.39062s-0.69141 0.14844-0.92969 0.39062c-0.23828 0.23828-0.39062 0.57031-0.39062 0.92969v9.3008c0 0.64844-0.53125 1.1797-1.1797 1.1797-0.64844 0-1.1797-0.53125-1.1797-1.1797v-9.3008c0-1.0117 0.41016-1.9297 1.0781-2.6016 0.67188-0.67188 1.5781-1.0781 2.6016-1.0781 1.0117 0 1.9297 0.41016 2.6016 1.0781 0.67188 0.67188 1.0781 1.5781 1.0781 2.6016v2.0586h10.898c1.4688 0 2.7383 0.60156 3.7617 1.6406 4.6016 4.6016 9.2109 9.1992 13.809 13.809 0.14062 0.14062 0.26953 0.28125 0.39844 0.42969l2.1094-0.87109zm24.242 15.711-2.6719-0.53125-1.9219-4.6406 1.5195-2.2617c0.25-0.37109 0.19922-0.85156-0.10938-1.1602l-3.5-3.5c-0.30859-0.30859-0.78906-0.35938-1.1602-0.10938l-2.2617 1.5195-4.6406-1.9219-0.53125-2.6719c-0.089843-0.44141-0.46094-0.73828-0.89844-0.73828h-4.9414c-0.44141 0-0.82031 0.30859-0.89844 0.73828l-0.53125 2.6719-3.1094 1.2891c0.10938 0.41016 0.17188 0.85156 0.17188 1.2891v7.4102c1.6719-1.8984 4.1094-3.1016 6.8398-3.1016 5.0195 0 9.0898 4.0703 9.0898 9.0898s-4.0703 9.0898-9.0898 9.0898c-2.7305 0-5.1719-1.1992-6.8398-3.1016v8.7695l2.9414 1.2188 0.53125 2.6719c0.089843 0.44141 0.46094 0.73828 0.89844 0.73828h4.9414c0.44141 0 0.82031-0.30859 0.89844-0.73828l0.53125-2.6719 4.6406-1.9219 2.2617 1.5195c0.37109 0.25 0.85156 0.19922 1.1602-0.10938l3.5-3.5c0.30859-0.30859 0.35938-0.78906 0.10938-1.1602l-1.5195-2.2617 1.9219-4.6406 2.6719-0.53125c0.44141-0.089844 0.73828-0.46094 0.73828-0.89844v-4.9414c-0.003906-0.44141-0.30469-0.8125-0.74219-0.90234zm-32.121-15.551-6.9688-6.9688v6.0391c0 0.25 0.10156 0.48047 0.26953 0.64844 0.17188 0.17188 0.39844 0.26953 0.64844 0.26953l6.0508 0.003906zm3.1289-9.168h6.0391l-6.9688-6.9688v6.0391c0 0.25 0.10156 0.48047 0.26953 0.64844 0.17969 0.17969 0.41016 0.28125 0.66016 0.28125zm-37.758-11.34h-5.3203v6.8281h5.3203zm39.008 26.027v48.121h-50.379v-64.98h4.7695 0.10156 0.10156 6.3906v5.5781c0 1.5508 0.62891 2.9492 1.6484 3.9688 1.0195 1.0195 2.4297 1.6484 3.9688 1.6484 1.5508 0 2.9492-0.62891 3.9688-1.6484 1.0195-1.0195 1.6484-2.4297 1.6484-3.9688v-5.5781h10.898c1.7617 0 3.1719 1.75 3.1719 3.4414v6.9805c0 1.8086 1.4688 3.2812 3.2812 3.2812h6.9805c1.6797-0.003906 3.4492 1.3984 3.4492 3.1562zm-37.75 8.75h25.398v-5.1719l-25.398 0.003907zm30.289 32.91c0-0.71094-0.57812-1.2891-1.2891-1.2891h-32.598c-0.71094 0-1.2891 0.57812-1.2891 1.2891 0 0.71094 0.57812 1.2891 1.2891 1.2891h32.602c0.70703-0.007813 1.2852-0.57812 1.2852-1.2891zm0-6.5781c0-0.71094-0.57812-1.2891-1.2891-1.2891h-32.598c-0.71094 0-1.2891 0.57812-1.2891 1.2891 0 0.71094 0.57812 1.2891 1.2891 1.2891h32.602c0.70703-0.011719 1.2852-0.57812 1.2852-1.2891zm0-6.582c0-0.71094-0.57812-1.2891-1.2891-1.2891h-32.598c-0.71094 0-1.2891 0.57812-1.2891 1.2891 0 0.71094 0.57812 1.2891 1.2891 1.2891h32.602c0.70703-0.007813 1.2852-0.57812 1.2852-1.2891zm0-6.5781c0-0.71094-0.57812-1.2891-1.2891-1.2891h-32.598c-0.71094 0-1.2891 0.57812-1.2891 1.2891 0 0.71094 0.57812 1.2891 1.2891 1.2891h32.602c0.70703-0.011719 1.2852-0.57812 1.2852-1.2891zm0-6.582c0-0.71094-0.57812-1.2891-1.2891-1.2891h-32.598c-0.71094 0-1.2891 0.57812-1.2891 1.2891s0.57812 1.2891 1.2891 1.2891h32.602c0.70703 0.003907 1.2852-0.57812 1.2852-1.2891z" fill-rule="evenodd"/>
<text x="0.0" y="117.5" font-size="5.0" font-weight="bold" font-family="Arbeit Regular, Helvetica, Arial-Unicode, Arial, Sans-serif" fill="#000000">Created by Mia Elysia</text><text x="0.0" y="122.5" font-size="5.0" font-weight="bold" font-family="Arbeit Regular, Helvetica, Arial-Unicode, Arial, Sans-serif" fill="#000000">from Noun Project</text></svg>