<svg xmlns="http://www.w3.org/2000/svg" version="1.1" viewBox="-5.0 -10.0 110.0 135.0">
 <path d="m78.133 21.789-0.015624-0.015624c-7.5156-7.4922-17.492-11.617-28.117-11.617-10.617 0-20.594 4.125-28.117 11.617l-0.015624 0.015624c-7.5547 7.5312-11.711 17.555-11.711 28.211v0.03125c0.89062-1.0156 2-1.8281 3.25-2.375h1.5156c0.007813-0.17188 0.023437-0.35156 0.039063-0.52344 0.60156-7.5859 3.6172-14.672 8.6719-20.383l0.007813-0.007812c3.0156 2.6641 6.3672 4.8281 9.9531 6.4531v0.007813c-0.83594 4.1797-1.3594 8.7812-1.5156 13.672h4.6953c0.14844-4.3281 0.60156-8.3438 1.2969-11.969 3.8125 1.1875 7.8203 1.8125 11.93 1.8125 4.1016 0 8.1094-0.625 11.922-1.8125 0.73438 3.8359 1.2031 8.1172 1.3203 12.75h-17.273c2.1094 0.92188 3.8047 2.5938 4.7578 4.6875h12.523c-0.11719 4.4219-0.57031 8.75-1.3359 12.75-3.3359-1.0469-6.8047-1.6484-10.352-1.7812v4.6953c3.1953 0.13281 6.3125 0.69531 9.3125 1.6797-2.5156 9.3359-6.7734 15.469-10.875 15.469-1.25 0-2.5312-0.57812-3.7891-1.6719-1.1172 0.53125-2.3438 0.84375-3.6484 0.88281-0.77344-0.17188-1.5469-0.36719-2.3125-0.58594 0.14062 0.20312 0.28906 0.39844 0.4375 0.59375h-10.828c6.0703 3.5625 13.008 5.4688 20.141 5.4688 10.625 0 20.609-4.125 28.125-11.617v-0.007812c7.5547-7.5312 11.719-17.547 11.719-28.219 0-10.656-4.1562-20.68-11.711-28.211zm-5.1094 1.6406c-2.3594 2.0547-4.9531 3.7656-7.7188 5.1094-1.3828-5.0078-3.2656-9.2031-5.5-12.32 4.8516 1.4062 9.3438 3.8438 13.219 7.2109zm-32.828-7.2031c-2.2422 3.1094-4.1172 7.3125-5.5 12.312-2.7656-1.3359-5.3594-3.0547-7.7188-5.1094 3.875-3.375 8.375-5.8047 13.219-7.2031zm-1.0781 14.086c2.5234-9.3828 6.6797-15.195 10.602-15.461 0.09375-0.007812 0.1875-0.007812 0.28125-0.007812s0.1875 0 0.28125 0.007812c3.9219 0.27344 8.0781 6.0859 10.602 15.461-3.4688 1.125-7.1328 1.7188-10.883 1.7188s-7.4141-0.59375-10.883-1.7188zm27.297 2.8906v0c3.5859-1.6328 6.9375-3.7969 9.9453-6.4609 0 0 0 0.007812 0.007813 0.007812 5.1719 5.8359 8.2031 13.125 8.7109 20.906h-17.141c-0.11719-5.1875-0.65625-10.062-1.5234-14.453zm-6.6641 50.586c2.2109-3.0703 4.0859-7.25 5.5-12.344 2.8203 1.3516 5.4219 3.0625 7.7812 5.1172-3.8906 3.3906-8.4062 5.8359-13.281 7.2266zm16.617-10.539c-3-2.6562-6.3594-4.8203-10.008-6.4609 0.91406-4.5 1.4531-9.4219 1.5781-14.445h17.141c-0.50781 7.7812-3.5391 15.062-8.7109 20.906zm-34.125 6.4375c2.5547 0 4.6328-2.0781 4.6328-4.6328v-18.859c0-1.6016-0.82031-3.0156-2.0625-3.8516-0.73438-0.49219-1.625-0.78125-2.5703-0.78125h-25.109c-0.94531 0-1.8359 0.28906-2.5703 0.78125-0.92188 0.61719-1.6172 1.5625-1.9062 2.6719-0.070312 0.25-0.11719 0.50781-0.14062 0.77344-0.007813 0.13281-0.015625 0.27344-0.015625 0.40625v32.867l10.938-9.375zm-14.211-15.719c0.86719-0.875 2.4375-0.875 3.3125 0 0.4375 0.4375 0.6875 1.0391 0.6875 1.6562s-0.25 1.2188-0.6875 1.6562-1.0391 0.6875-1.6562 0.6875c-0.15625 0-0.30469-0.015625-0.46094-0.046875-0.14844-0.03125-0.29687-0.078125-0.4375-0.13281-0.14062-0.054687-0.27344-0.13281-0.40625-0.21094-0.125-0.085937-0.24219-0.1875-0.35156-0.29688s-0.21094-0.22656-0.28906-0.35156c-0.085938-0.13281-0.15625-0.26563-0.21875-0.40625-0.0625-0.14063-0.10156-0.28906-0.13281-0.4375-0.03125-0.15625-0.046875-0.30469-0.046875-0.46094 0-0.61719 0.25-1.2188 0.6875-1.6562zm8.5938 0c0.86719-0.86719 2.4375-0.875 3.3125 0 0.4375 0.4375 0.6875 1.0391 0.6875 1.6562 0 0.15625-0.015625 0.30469-0.046875 0.46094-0.03125 0.14844-0.070313 0.29687-0.13281 0.4375-0.0625 0.14062-0.13281 0.27344-0.21875 0.40625-0.085937 0.125-0.17969 0.24219-0.28906 0.35156-0.4375 0.4375-1.0391 0.6875-1.6562 0.6875s-1.2188-0.25-1.6562-0.6875-0.6875-1.0391-0.6875-1.6562 0.25-1.2188 0.6875-1.6562zm-14.234 3.6094c-0.125 0.078125-0.25781 0.15625-0.39844 0.21094-0.14063 0.054688-0.28906 0.10156-0.4375 0.13281-0.15625 0.03125-0.3125 0.046875-0.46094 0.046875-0.61719 0-1.2188-0.25-1.6562-0.6875s-0.6875-1.0391-0.6875-1.6562 0.25-1.2188 0.6875-1.6562c0.86719-0.875 2.4453-0.86719 3.3125 0 0.4375 0.4375 0.6875 1.0391 0.6875 1.6562s-0.25 1.2188-0.6875 1.6562c-0.10938 0.10938-0.22656 0.21094-0.35938 0.29688z"/>
<text x="0.0" y="117.5" font-size="5.0" font-weight="bold" font-family="Arbeit Regular, Helvetica, Arial-Unicode, Arial, Sans-serif" fill="#000000">Created by Icon Pie</text><text x="0.0" y="122.5" font-size="5.0" font-weight="bold" font-family="Arbeit Regular, Helvetica, Arial-Unicode, Arial, Sans-serif" fill="#000000">from Noun Project</text></svg>