<svg xmlns="http://www.w3.org/2000/svg" xmlns:xlink="http://www.w3.org/1999/xlink" version="1.1" x="0px" y="0px" viewBox="0 0 100 125" style="enable-background:new 0 0 100 100;" xml:space="preserve"><path d="M71.14,62.58c-0.11-0.11-0.18-0.27-0.18-0.43V42.96c0-10.88-8.34-19.85-18.96-20.86v-4.6c0-1.1-0.9-2-2-2s-2,0.9-2,2v4.6  c-10.62,1.01-18.96,9.98-18.96,20.86v19.19c0,0.16-0.07,0.32-0.18,0.43l-5.01,5.01c-0.87,0.87-1.35,2.03-1.35,3.26v1.53  c0,2.55,2.07,4.62,4.62,4.62h14.02c0.71,4.25,4.41,7.5,8.86,7.5s8.15-3.25,8.86-7.5h14.02c2.55,0,4.62-2.07,4.62-4.62v-1.53  c0-1.23-0.48-2.39-1.35-3.26L71.14,62.58z M50,80.5c-2.23,0-4.1-1.48-4.74-3.5h9.48C54.1,79.02,52.23,80.5,50,80.5z M73.5,72.38  c0,0.34-0.28,0.62-0.62,0.62H27.12c-0.34,0-0.62-0.28-0.62-0.62v-1.53c0-0.16,0.06-0.32,0.18-0.43l5.01-5.01  c0.87-0.87,1.35-2.03,1.35-3.26V42.96C33.04,33.61,40.65,26,50,26s16.96,7.61,16.96,16.96v19.19c0,1.23,0.48,2.39,1.35,3.26  l5.01,5.01c0.12,0.11,0.18,0.27,0.18,0.43V72.38z M22.61,60.52c-0.39,0.39-0.9,0.59-1.41,0.59s-1.02-0.2-1.41-0.59  c-3.21-3.21-4.98-7.48-4.98-12.02c0-4.54,1.77-8.81,4.98-12.02c0.78-0.78,2.05-0.78,2.83,0c0.78,0.78,0.78,2.05,0,2.83  c-2.46,2.46-3.81,5.72-3.81,9.19c0,3.47,1.35,6.74,3.81,9.19C23.39,58.47,23.39,59.74,22.61,60.52z M15.54,64.76  c0.78,0.78,0.78,2.05,0,2.83c-0.39,0.39-0.9,0.59-1.41,0.59s-1.02-0.2-1.41-0.59C7.61,62.49,4.8,55.71,4.8,48.5  s2.81-13.99,7.91-19.09c0.78-0.78,2.05-0.78,2.83,0c0.78,0.78,0.78,2.05,0,2.83C11.2,36.58,8.8,42.36,8.8,48.5  S11.2,60.42,15.54,64.76z M80.22,60.52c-0.39,0.39-0.9,0.59-1.41,0.59s-1.02-0.2-1.41-0.59c-0.78-0.78-0.78-2.05,0-2.83  c5.07-5.07,5.07-13.32,0-18.38c-0.78-0.78-0.78-2.05,0-2.83c0.78-0.78,2.05-0.78,2.83,0C86.85,43.11,86.85,53.89,80.22,60.52z   M95.2,48.5c0,7.21-2.81,13.99-7.91,19.09c-0.39,0.39-0.9,0.59-1.41,0.59s-1.02-0.2-1.41-0.59c-0.78-0.78-0.78-2.05,0-2.83  c4.34-4.34,6.74-10.12,6.74-16.26s-2.39-11.92-6.74-16.26c-0.78-0.78-0.78-2.05,0-2.83c0.78-0.78,2.05-0.78,2.83,0  C92.39,34.51,95.2,41.29,95.2,48.5z"/><text x="0" y="115" fill="#000000" font-size="5px" font-weight="bold" font-family="'Helvetica Neue', Helvetica, Arial-Unicode, Arial, Sans-serif">Created by IconMark</text><text x="0" y="120" fill="#000000" font-size="5px" font-weight="bold" font-family="'Helvetica Neue', Helvetica, Arial-Unicode, Arial, Sans-serif">from the Noun Project</text></svg>