<?xml version="1.0" encoding="UTF-8"?>
<svg version="1.1" xmlns="http://www.w3.org/2000/svg" width="512" height="512">
<path d="M0 0 C1.28431947 -0.00311998 2.56863894 -0.00623996 3.89187717 -0.00945449 C7.41334844 -0.01771332 10.93470967 -0.0137184 14.45618105 -0.00748205 C18.27083316 -0.00292158 22.08546749 -0.00995899 25.90011597 -0.01544189 C33.35589871 -0.02429948 40.81164102 -0.02243017 48.2674253 -0.01661661 C54.33104771 -0.01208575 60.39465885 -0.01149336 66.45828247 -0.01366425 C67.32380692 -0.01397071 68.18933137 -0.01427718 69.08108383 -0.01459293 C70.83980012 -0.01523243 72.59851641 -0.01588086 74.35723269 -0.01653811 C90.81912013 -0.02223076 107.28098524 -0.01570027 123.74286902 -0.00493738 C137.84445966 0.00399716 151.94601737 0.00244482 166.04760742 -0.0067749 C182.45367315 -0.0174964 198.85971934 -0.02168154 215.26578808 -0.01555037 C217.01775805 -0.01491333 218.76972802 -0.01428459 220.521698 -0.01366425 C221.38352882 -0.01335569 222.24535965 -0.01304714 223.13330656 -0.01272924 C229.18426362 -0.01100794 235.23520821 -0.01390519 241.28616333 -0.01862335 C248.66794804 -0.02425311 256.04969026 -0.02267191 263.43147016 -0.01206186 C267.19222045 -0.00683322 270.9529001 -0.00470007 274.71364975 -0.01136017 C278.80248722 -0.01849137 282.89114883 -0.00993295 286.97998047 0 C288.15140878 -0.00446144 289.32283709 -0.00892289 290.52976322 -0.01351953 C313.09450275 0.0922158 332.57000957 6.10579262 348.86499023 22.00396729 C366.38735987 39.93609961 369.79434706 60.73382494 369.78051758 84.59625244 C369.78650855 86.66041302 369.7933154 88.72457137 369.8008728 90.78872681 C369.81848411 96.37581969 369.82322619 101.96285124 369.82450438 107.5499692 C369.82592952 111.04742215 369.83020605 114.54485969 369.83549881 118.04230881 C369.85398442 130.26342502 369.86217144 142.48449771 369.8605957 154.70562744 C369.85939537 166.06520578 369.88048042 177.4245938 369.91208303 188.78412402 C369.93831018 198.56284777 369.94896027 208.34150961 369.94768488 218.12026823 C369.94717706 223.9490481 369.95276043 229.77765878 369.97404099 235.60640335 C369.99353155 241.09439846 369.99347431 246.58206487 369.97900772 252.07007217 C369.97693175 254.07261134 369.98154729 256.07517167 369.99372864 258.07767487 C370.07786347 272.87948702 368.95499973 287.11797016 361.92749023 300.50396729 C361.59233398 301.15744141 361.25717773 301.81091553 360.91186523 302.48419189 C357.16351344 309.41339908 352.1380557 314.83049352 346.48999023 320.25396729 C345.47098633 321.26717041 345.47098633 321.26717041 344.43139648 322.30084229 C328.45764213 337.31152205 308.11011072 340.58840973 286.97998047 340.50793457 C285.695661 340.51105455 284.41134153 340.51417453 283.08810329 340.51738906 C279.56663203 340.52564789 276.0452708 340.52165297 272.52379942 340.51541662 C268.70914731 340.51085616 264.89451298 340.51789356 261.0798645 340.52337646 C253.62408176 340.53223405 246.16833945 340.53036474 238.71255517 340.52455118 C232.64893276 340.52002032 226.58532162 340.51942793 220.521698 340.52159882 C219.22341132 340.52205852 219.22341132 340.52205852 217.89889663 340.5225275 C216.14018035 340.523167 214.38146406 340.52381543 212.62274778 340.52447268 C196.16086034 340.53016533 179.69899523 340.52363484 163.23711145 340.51287195 C149.1355208 340.50393741 135.0339631 340.50548976 120.93237305 340.51470947 C104.52630732 340.52543097 88.12026113 340.52961611 71.71419239 340.52348495 C69.96222242 340.5228479 68.21025245 340.52221916 66.45828247 340.52159882 C65.59645164 340.52129026 64.73462082 340.52098171 63.84667391 340.52066381 C57.79571685 340.51894251 51.74477226 340.52183976 45.69381714 340.52655792 C38.31203243 340.53218768 30.93029021 340.53060648 23.54851031 340.51999643 C19.78776002 340.51476779 16.02708037 340.51263464 12.26633072 340.51929474 C8.17749325 340.52642594 4.08883164 340.51786752 0 340.50793457 C-1.17142831 340.51239601 -2.34285662 340.51685746 -3.54978275 340.5214541 C-26.11452228 340.41571878 -45.59002911 334.40214195 -61.88500977 318.50396729 C-79.4073794 300.57183496 -82.81436659 279.77410963 -82.80053711 255.91168213 C-82.80652808 253.84752155 -82.81333493 251.7833632 -82.82089233 249.71920776 C-82.83850364 244.13211488 -82.84324572 238.54508333 -82.84452391 232.95796537 C-82.84594906 229.46051242 -82.85022559 225.96307488 -82.85551834 222.46562576 C-82.87400395 210.24450955 -82.88219097 198.02343686 -82.88061523 185.80230713 C-82.8794149 174.44272879 -82.90049995 163.08334077 -82.93210256 151.72381055 C-82.95832971 141.9450868 -82.9689798 132.16642496 -82.96770442 122.38766634 C-82.96719659 116.55888647 -82.97277996 110.73027579 -82.99406052 104.90153122 C-83.01355108 99.41353611 -83.01349384 93.9258697 -82.99902725 88.4378624 C-82.99695128 86.43532323 -83.00156682 84.4327629 -83.01374817 82.4302597 C-83.097883 67.62844755 -81.97501926 53.38996441 -74.94750977 40.00396729 C-74.61235352 39.35049316 -74.27719727 38.69701904 -73.93188477 38.02374268 C-70.18353297 31.09453549 -65.15807523 25.67744105 -59.51000977 20.25396729 C-58.83067383 19.57849854 -58.15133789 18.90302979 -57.45141602 18.20709229 C-41.47766167 3.19641252 -21.13013025 -0.08047516 0 0 Z M-46.69750977 40.31646729 C-58.99946537 54.93907577 -59.81118867 70.57466577 -59.78466797 88.74176025 C-59.78902032 90.71388949 -59.79420521 92.68601703 -59.80015564 94.65814209 C-59.81350038 99.99291544 -59.81412937 105.32761775 -59.81159234 110.66240454 C-59.81051957 115.12543049 -59.81541379 119.58844225 -59.82019776 124.05146515 C-59.83127726 134.58528535 -59.83173909 145.11906987 -59.82568359 155.65289307 C-59.81964419 166.49901648 -59.8319576 177.34501016 -59.85325366 188.19111145 C-59.8708991 197.52306659 -59.87686639 206.85498055 -59.87361592 216.18695176 C-59.87180765 221.75176469 -59.87439365 227.31648506 -59.88833046 232.88128281 C-59.90095214 238.11642913 -59.89892372 243.35137393 -59.88591957 248.58651733 C-59.8835637 250.50042923 -59.88625273 252.4143555 -59.89454269 254.32825089 C-59.96906279 272.87985934 -57.37925854 289.02818506 -43.99047852 303.00006104 C-29.71568258 315.97101735 -14.16457699 317.41693808 4.27978516 317.38095093 C5.52282252 317.38251092 6.76585989 317.38407091 8.04656506 317.38567817 C11.46657353 317.38895697 14.88652643 317.38780363 18.30653143 317.38469195 C22.00665311 317.38241754 25.70677013 317.38592759 29.40689087 317.38867188 C36.64349198 317.39310677 43.88008269 317.39216326 51.1166842 317.38925923 C57.00067241 317.38699623 62.88465772 317.38669656 68.76864624 317.38778305 C69.60768972 317.38793628 70.44673319 317.38808952 71.31120223 317.38824739 C73.01597031 317.38856713 74.72073839 317.38889135 76.42550647 317.38921998 C92.39226839 317.3920681 108.35902455 317.38879824 124.32578552 317.38341962 C138.01105716 317.37895219 151.69632031 317.37972831 165.3815918 317.38433838 C181.29318665 317.38969595 197.20477648 317.39179347 213.11637211 317.38872612 C214.81469281 317.38840758 216.51301352 317.38809321 218.21133423 317.38778305 C219.04683105 317.38762878 219.88232787 317.3874745 220.74314278 317.38731555 C226.6166354 317.38645394 232.49012482 317.38790559 238.36361694 317.3902626 C245.52632762 317.39307393 252.68902735 317.39229426 259.85173678 317.38698186 C263.5027125 317.38436282 267.15366998 317.38330919 270.80464554 317.38663101 C274.76983899 317.39018403 278.73500292 317.38592718 282.70019531 317.38095093 C284.41515088 317.38429701 284.41515088 317.38429701 286.16475201 317.38771069 C303.85358735 317.34476376 318.15728863 314.5770282 331.63842773 302.29693604 C345.74484078 287.73111873 346.79252208 270.86005409 346.76464844 251.76617432 C346.76900079 249.79404508 346.77418568 247.82191754 346.78013611 245.84979248 C346.79348085 240.51501913 346.79410983 235.18031682 346.79157281 229.84553003 C346.79050004 225.38250408 346.79539426 220.91949232 346.80017823 216.45646942 C346.81125773 205.92264922 346.81171956 195.3888647 346.80566406 184.8550415 C346.79962466 174.00891809 346.81193807 163.16292441 346.83323413 152.31682312 C346.85087957 142.98486798 346.85684686 133.65295402 346.85359639 124.32098281 C346.85178812 118.75616988 346.85437411 113.19144951 346.86831093 107.62665176 C346.88093261 102.39150544 346.87890419 97.15656065 346.86590004 91.92141724 C346.86354417 90.00750534 346.8662332 88.09357907 346.87452316 86.17968369 C346.94904326 67.62807523 344.35923901 51.47974951 330.97045898 37.50787354 C316.69566305 24.53691723 301.14455746 23.0909965 282.70019531 23.12698364 C281.45715795 23.12542365 280.21412058 23.12386366 278.93341541 23.1222564 C275.51340694 23.1189776 272.09345404 23.12013094 268.67344904 23.12324262 C264.97332736 23.12551703 261.27321033 23.12200698 257.5730896 23.1192627 C250.33648849 23.1148278 243.09989778 23.11577131 235.86329627 23.11867534 C229.97930806 23.12093834 224.09532275 23.12123801 218.21133423 23.12015152 C217.37229075 23.11999829 216.53324728 23.11984505 215.66877824 23.11968718 C213.96401016 23.11936744 212.25924208 23.11904322 210.554474 23.11871459 C194.58771208 23.11586647 178.62095592 23.11913633 162.65419495 23.12451495 C148.96892331 23.12898238 135.28366016 23.12820626 121.59838867 23.12359619 C105.68679382 23.11823862 89.77520399 23.1161411 73.86360836 23.11920846 C72.16528765 23.11952699 70.46696695 23.11984136 68.76864624 23.12015152 C67.93314942 23.1203058 67.09765259 23.12046007 66.23683769 23.12061902 C60.36334506 23.12148063 54.48985565 23.12002898 48.61636353 23.11767197 C41.45365285 23.11486064 34.29095312 23.11564031 27.12824368 23.12095271 C23.47726797 23.12357175 19.82631049 23.12462538 16.17533493 23.12130356 C12.21014148 23.11775054 8.24497755 23.12200739 4.27978516 23.12698364 C3.13648145 23.12475292 1.99317774 23.1225222 0.81522846 23.12022388 C-17.83496986 23.16550491 -33.24662496 26.42752684 -46.69750977 40.31646729 Z " fill="#1C1C1A" transform="translate(112.510009765625,85.74603271484375)"/>
<path d="M0 0 C7.93531865 4.46347126 14.18225151 11.99205432 20.5 18.4375 C22.67360609 20.64798492 24.85049011 22.85516596 27.03125 25.05859375 C27.55992676 25.5928598 28.08860352 26.12712585 28.63330078 26.67758179 C31.28816251 29.34273894 33.97252694 31.9175039 36.84375 34.34765625 C44.34915341 40.73720689 51.08970154 48.03981461 58.01855469 55.0390625 C66.27293977 63.52020719 66.27293977 63.52020719 75 71.5 C82.46469884 77.8200042 89.14351343 85.09417322 96.01855469 92.0390625 C104.27293977 100.52020719 104.27293977 100.52020719 113 108.5 C120.46469884 114.8200042 127.14351343 122.09417322 134.01855469 129.0390625 C145.35271154 141.54029105 145.35271154 141.54029105 159 151 C159.4846875 150.50371094 159.969375 150.00742187 160.46875 149.49609375 C161.1390625 148.81675781 161.809375 148.13742187 162.5 147.4375 C163.1496875 146.77621094 163.799375 146.11492187 164.46875 145.43359375 C166.38864584 143.58776796 168.3154161 141.87732529 170.34375 140.16015625 C177.25327389 134.15939895 183.56573504 127.49963485 190 121 C204.76145514 106.08857362 204.76145514 106.08857362 210.80859375 100.96875 C216.79354786 95.59189283 222.3415968 89.7158906 228 84 C242.76145514 69.08857362 242.76145514 69.08857362 248.80859375 63.96875 C254.79354786 58.59189283 260.3415968 52.7158906 266 47 C280.97133525 31.8765612 280.97133525 31.8765612 287.04541016 26.73632812 C289.60574849 24.46189318 292.01172975 22.04402266 294.41796875 19.609375 C294.8885672 19.13326782 295.35916565 18.65716064 295.84402466 18.16662598 C297.78762304 16.19538056 299.72743245 14.22049767 301.6628418 12.24121094 C303.09760355 10.77614572 304.53861331 9.31745471 305.98046875 7.859375 C306.82504639 6.99795898 307.66962402 6.13654297 308.53979492 5.24902344 C312.05212762 2.03818601 314.68297995 0.16762073 319.4375 -0.4375 C324.65512075 0.20326044 327.59245374 2.26402628 330.875 6.3125 C332.41214882 9.98457774 332.67121381 12.03983854 332 16 C330.69102478 17.8221283 330.69102478 17.8221283 328.96459961 19.71850586 C328.32787323 20.41894012 327.69114685 21.11937439 327.03512573 21.84103394 C323.72757301 25.349856 320.35589156 28.78673373 316.94140625 32.19140625 C316.1934227 32.94034653 315.44543915 33.6892868 314.67478943 34.46092224 C313.10367536 36.03271225 311.53131608 37.60325849 309.95776367 39.17260742 C307.56900154 41.55601304 305.18562554 43.94471068 302.80273438 46.33398438 C301.2659455 47.87011237 299.7288464 49.40593009 298.19140625 50.94140625 C297.13790733 51.99794151 297.13790733 51.99794151 296.06312561 53.07582092 C292.78555293 56.33814489 289.47145319 59.50274555 285.97045898 62.52514648 C281.88215317 66.05463822 278.074872 69.81459861 274.28125 73.65625 C273.57907349 74.36221313 272.87689697 75.06817627 272.15344238 75.79553223 C269.93315397 78.02791358 267.71616045 80.26352111 265.5 82.5 C262.57590521 85.45090378 259.64836943 88.39833203 256.71875 91.34375 C256.063302 92.00749634 255.407854 92.67124268 254.73254395 93.35510254 C250.89328672 97.21435462 246.94419438 100.87802791 242.8112793 104.42167664 C239.92556247 106.93624979 237.20727984 109.60867332 234.5 112.3125 C233.96375 112.83650391 233.4275 113.36050781 232.875 113.90039062 C231.54282499 115.22746802 230.26592951 116.60958742 229 118 C229 118.66 229 119.32 229 120 C230.41647671 121.4323278 230.41647671 121.4323278 232.3125 122.9375 C236.40479647 126.40689825 240.16304081 130.13029463 243.92871094 133.94873047 C247.15235519 137.19803002 250.49252613 140.22368792 253.97265625 143.19140625 C257.31879936 146.17650116 260.41593952 149.40882768 263.56640625 152.59765625 C265.63242365 154.63714373 267.73005549 156.555078 269.9375 158.4375 C273.28925096 161.30172355 276.40556417 164.36334093 279.5 167.5 C282.57390527 170.61579123 285.66702145 173.65877238 289 176.5 C292.85122069 179.7830078 296.3828886 183.35404512 299.93359375 186.953125 C303.1311107 190.17721411 306.44455172 193.1749885 309.8984375 196.1171875 C313.0828638 198.97014936 316.05539091 202.03153178 319.05444336 205.07617188 C321.46713877 207.51222554 323.89369233 209.8466833 326.5625 212 C329.24271109 214.19914756 330.80944317 215.81654178 331.37109375 219.3046875 C331.55142675 226.28463556 331.55142675 226.28463556 328.6875 230 C324.6053249 233.03789775 322.36720073 234.23537242 317.23046875 234.4609375 C311.33961489 233.24356315 307.13795698 228.36898011 303.125 224.1875 C299.84376114 220.83370304 296.58316205 217.53594274 293 214.5 C288.91125235 211.0245645 285.19183316 207.21899763 281.42407227 203.40454102 C278.0941767 200.04939106 274.66068601 196.90274548 271.05859375 193.83984375 C267.92769719 191.04164208 265.01170305 188.03226344 262.06396484 185.04443359 C259.47977682 182.43879261 256.85790842 179.93946891 254.0625 177.5625 C250.523209 174.54647173 247.26505555 171.30552099 244 168 C240.17069189 164.12329213 236.28331621 160.43606187 232.125 156.91015625 C229.29654234 154.36766398 226.66196403 151.65227422 224 148.9375 C219.6107778 144.47093467 215.16575357 140.57629093 210 137 C203.80704129 142.34518566 197.95747824 147.967767 192.19921875 153.7734375 C191.50982208 154.4683429 190.82042542 155.16324829 190.11013794 155.87921143 C187.23605051 158.78097847 184.36572519 161.68640579 181.49975586 164.59619141 C179.38313653 166.743004 177.26034266 168.88355683 175.13671875 171.0234375 C174.1725428 172.00780289 174.1725428 172.00780289 173.18888855 173.01205444 C168.74062221 177.48504013 164.81663061 181.40185871 158.1875 181.5625 C157.00220703 181.62630859 157.00220703 181.62630859 155.79296875 181.69140625 C148.00494987 179.76346311 141.89168834 172.12698456 136.484375 166.57421875 C134.88812921 164.95757527 133.29177183 163.34104198 131.6953125 161.72460938 C129.20877832 159.19439551 126.72478484 156.66174213 124.24316406 154.12670898 C121.82993053 151.66535302 119.40768204 149.21315138 116.984375 146.76171875 C116.24266052 145.99824631 115.50094604 145.23477386 114.73675537 144.44816589 C113.69482025 143.39620781 113.69482025 143.39620781 112.63183594 142.32299805 C112.02531189 141.70377975 111.41878784 141.08456146 110.79388428 140.44657898 C108.82527023 138.85909882 107.4989102 138.30331339 105 138 C103.21729636 139.00081244 103.21729636 139.00081244 101.64453125 140.6484375 C101.02650635 141.2374585 100.40848145 141.82647949 99.77172852 142.43334961 C98.8019104 143.39446655 98.8019104 143.39446655 97.8125 144.375 C97.143396 145.01896729 96.47429199 145.66293457 95.78491211 146.32641602 C91.45062081 150.51397759 87.19085023 154.77750144 82.9609375 159.0703125 C81.09647723 160.90506026 79.17703565 162.61530428 77.1875 164.3125 C73.61101185 167.37500183 70.30610201 170.65280287 67 174 C63.14878711 177.89896506 59.2357826 181.60824307 55.05859375 185.16015625 C52.43501277 187.50495064 49.97009896 189.99630568 47.5 192.5 C44.44661717 195.59491133 41.37676339 198.61934257 38.0625 201.4375 C33.9580986 204.93509051 30.21706583 208.75533727 26.4309082 212.58862305 C23.04002697 216.00530271 19.54793374 219.22550202 15.875 222.33984375 C13.04870802 224.84228977 10.45951952 227.56633175 7.859375 230.30078125 C4.18710631 233.65674108 1.04355134 234.44578576 -3.96875 234.32421875 C-7.31551204 233.79002404 -9.44251471 232.13123774 -12 230 C-14.84788326 225.72817511 -14.85691425 222.01141815 -14 217 C-11.33171818 212.0656406 -6.48634321 208.59548066 -2.26953125 205.015625 C0.43131955 202.61693479 2.96657171 200.07212318 5.5 197.5 C9.16813844 193.78121912 12.9315158 190.263298 16.90625 186.875 C19.53985527 184.51654752 22.01826514 182.01554596 24.5 179.5 C28.16847581 175.78154495 31.93149229 172.26331805 35.90625 168.875 C39.04520347 166.06399689 41.97350681 163.04732203 44.93139648 160.04907227 C48.15366448 156.79999393 51.49340645 153.77556137 54.97265625 150.80859375 C57.41428634 148.63041508 59.70048032 146.32751992 62 144 C64.89591958 141.06881809 67.80242571 138.23596826 70.9375 135.5625 C76.25637462 131.01589552 81.09273176 125.98162079 86 121 C86.66 120.34 87.32 119.68 88 119 C85.00428676 115.97489042 82.00265195 112.95572125 79 109.9375 C78.16082031 109.08994141 77.32164062 108.24238281 76.45703125 107.36914062 C75.62558594 106.53447266 74.79414063 105.69980469 73.9375 104.83984375 C72.80634766 103.70083618 72.80634766 103.70083618 71.65234375 102.53881836 C69.53545501 100.51253651 67.39045524 98.58897958 65.17382812 96.67602539 C61.0246703 93.0717417 57.14162078 89.25299524 53.28125 85.34375 C52.22798523 84.2848053 52.22798523 84.2848053 51.15344238 83.20446777 C48.18616234 80.22102625 45.22494637 77.2315929 42.26318359 74.24267578 C40.08381535 72.04509421 37.90135053 69.85062062 35.71875 67.65625 C35.063302 66.99250366 34.407854 66.32875732 33.73254395 65.64489746 C30.59381704 62.48982406 27.41266267 59.44631189 24.04272461 56.53833008 C19.70080076 52.79001037 15.64660364 48.79078125 11.59765625 44.73046875 C10.83448593 43.96825516 10.07131561 43.20604156 9.28501892 42.42073059 C7.68805211 40.82443932 6.09232747 39.22690447 4.49780273 37.62817383 C2.04850264 35.17347177 -0.40614904 32.72421104 -2.86132812 30.27539062 C-4.4169878 28.71907093 -5.97233766 27.16244148 -7.52734375 25.60546875 C-8.2626683 24.87216843 -8.99799286 24.1388681 -9.75559998 23.38334656 C-10.43042923 22.70536514 -11.10525848 22.02738373 -11.80053711 21.32885742 C-12.3959581 20.73264084 -12.99137909 20.13642426 -13.60484314 19.5221405 C-15.79301545 17.1348063 -15.99955944 16.00583738 -16.25 12.6875 C-15.97846303 8.6823297 -15.50326737 7.08736309 -13 4 C-8.6621324 0.3522477 -5.64833534 -0.97385092 0 0 Z " fill="#1C1C1A" transform="translate(98,141)"/>
</svg>
