<?xml version="1.0" encoding="UTF-8"?>
<svg version="1.1" xmlns="http://www.w3.org/2000/svg" width="1200" height="1200">
<path d="M0 0 C2.25587027 0.00564719 4.51173301 0.0084633 6.76760864 0.0110817 C28.58023273 0.04788026 50.12149097 0.54663949 71.78274536 3.31805801 C73.20915666 3.48758016 74.63575941 3.65549763 76.06253052 3.82196426 C145.65744317 11.99766752 212.20422537 32.99770862 274.78274536 64.31805801 C276.39077026 65.11614883 276.39077026 65.11614883 278.03128052 65.9303627 C302.04865524 77.89618186 324.91226121 91.77479198 346.78274536 107.31805801 C347.53700806 107.84850723 348.29127075 108.37895645 349.06838989 108.92547989 C359.40636959 116.20027363 369.338426 123.85014502 379.07278442 131.9122963 C381.40763446 133.83178038 383.78213475 135.69939235 386.15774536 137.56805801 C390.39688328 140.94656559 394.42203989 144.52614744 398.42727661 148.17743301 C400.4601637 150.02489922 402.51655952 151.83513125 404.59524536 153.63055801 C414.10649798 161.95525833 423.20699353 170.64434526 432.15774536 179.56805801 C433.00175903 180.4074794 433.84577271 181.24690079 434.71536255 182.11175919 C439.05766576 186.46481067 443.25086114 190.88607765 447.25881958 195.54901505 C449.33654985 197.96093967 451.49772038 200.29234915 453.65774536 202.63055801 C458.57846316 208.03297258 463.21067089 213.6197466 467.78274536 219.31805801 C468.69499826 220.43826318 469.60778339 221.55803506 470.52102661 222.67743301 C498.50673701 257.12102246 522.04975389 294.62719768 541.78274536 334.31805801 C542.31738403 335.38089005 542.85202271 336.44372208 543.40286255 337.53876114 C573.32707744 397.1623377 591.23046409 462.24276603 599.52560425 528.28802872 C599.77035806 530.22026506 600.02649423 532.15104954 600.28323364 534.08172989 C605.81377738 577.29660937 605.88161683 625.06214796 600.06137085 668.24383926 C599.75910208 670.49406966 599.46969827 672.74577466 599.18069458 674.99774551 C591.88579023 731.13992202 577.75952307 786.47482971 554.78274536 838.31805801 C554.34994263 839.29645645 553.91713989 840.27485489 553.47122192 841.28290176 C542.88801205 865.06226886 531.23063607 888.0285482 517.78274536 910.31805801 C516.96072632 911.68921768 516.96072632 911.68921768 516.12210083 913.08807755 C502.60067558 935.58314481 487.38049998 956.98665716 470.78274536 977.31805801 C469.75987427 978.58456192 469.75987427 978.58456192 468.71633911 979.87665176 C454.18024481 997.79323312 438.62921302 1014.54876575 422.34524536 1030.88055801 C421.83086914 1031.39761307 421.31649292 1031.91466812 420.78652954 1032.44739151 C414.96466286 1038.2922778 409.05597836 1043.95404267 402.78274536 1049.31805801 C401.23793276 1050.73129352 399.69579211 1052.1474621 398.15774536 1053.56805801 C393.62938188 1057.6588649 388.90882842 1061.43086609 384.08792114 1065.16522598 C380.32194718 1068.08732967 376.65752985 1071.09542363 373.03274536 1074.19305801 C347.46522362 1095.60627966 318.1248091 1113.59396676 288.78274536 1129.31805801 C287.51237427 1130.003517 287.51237427 1130.003517 286.21633911 1130.70282364 C264.68794442 1142.28177828 242.72830469 1152.63175146 219.90774536 1161.38055801 C218.8489064 1161.78841034 218.8489064 1161.78841034 217.76867676 1162.20450211 C184.11346038 1175.10788935 184.11346038 1175.10788935 167.78274536 1168.31805801 C160.56741968 1164.43288265 156.2212725 1159.16266561 153.42638958 1151.51961195 C152.43049156 1148.11319091 152.373171 1144.76447965 152.41093445 1141.24864578 C152.40710988 1140.47681861 152.40328532 1139.70499143 152.39934486 1138.90977556 C152.39011933 1136.34410236 152.40201427 1133.77897736 152.41384888 1131.21332169 C152.41137855 1129.36434583 152.40753778 1127.51537138 152.4024353 1125.66640091 C152.39411165 1121.69084059 152.39489354 1117.7154236 152.40262032 1113.73986244 C152.41425757 1107.42661244 152.40199057 1101.11354434 152.38600159 1094.80031204 C152.34988035 1079.10341879 152.34355901 1063.40652961 152.34609985 1047.70959854 C152.34782098 1035.53547261 152.34037532 1023.36149671 152.30612129 1011.18741208 C152.29221882 1005.95348185 152.28604973 1000.7198024 152.29916573 995.48586464 C152.38563597 959.21787614 151.24067377 923.68365017 132.78274536 891.31805801 C132.20653442 890.30485489 131.63032349 889.29165176 131.03665161 888.24774551 C126.49293052 880.7133535 120.87918185 874.21707587 114.51321411 868.15790176 C112.78274536 866.31805801 112.78274536 866.31805801 112.78274536 864.31805801 C113.84259644 864.1677211 114.90244751 864.01738419 115.99441528 863.86249161 C187.56310153 853.6569276 258.02401026 836.57980269 311.78274536 785.31805801 C312.68508911 784.48016739 313.58743286 783.64227676 314.51712036 782.77899551 C322.60640359 775.04040376 329.23493147 766.36969534 335.78274536 757.31805801 C336.23005005 756.70478653 336.67735474 756.09151505 337.13821411 755.45965958 C370.90674845 708.67725162 384.75926806 645.9207165 384.98587036 588.92352676 C384.99157043 587.77427216 384.99727051 586.62501755 385.00314331 585.44093704 C385.01252936 583.01985958 385.01910159 580.59876971 385.02297974 578.17767715 C385.03261917 574.55300737 385.06367834 570.92892186 385.09524536 567.30438614 C385.18300963 548.17504155 383.8027254 529.42075456 379.09524536 510.81805801 C378.71396484 509.28060928 378.71396484 509.28060928 378.32498169 507.71210098 C369.84889055 474.63479591 354.74414746 441.13513974 330.85696411 416.20477676 C324.81460846 409.72231023 324.81460846 409.72231023 324.72805786 405.90790176 C325.52689855 402.93749988 326.65177032 400.17935714 327.78274536 397.31805801 C342.21446539 349.5623898 337.849083 296.22445577 318.78274536 250.31805801 C316.15807611 247.69338876 309.72751685 248.18742935 306.15774536 248.06805801 C289.53692938 248.29511834 273.50339592 252.22239887 257.78274536 257.31805801 C256.94791626 257.58151016 256.11308716 257.84496231 255.25296021 258.11639786 C225.13662064 267.75852633 196.02682344 283.51475569 169.94680786 301.24774551 C169.03842163 301.86109756 168.1300354 302.47444962 167.19412231 303.10638809 C165.52125445 304.24840132 163.86210202 305.410909 162.22097778 306.59808731 C158.58349089 309.10281486 156.5903983 310.30865676 152.09133911 310.36102676 C150.6467727 310.04996855 149.21113267 309.69652731 147.78274536 309.31805801 C146.79701538 309.09384171 145.8112854 308.8696254 144.79568481 308.63861465 C141.19982833 307.81364765 137.6171724 306.94128203 134.03274536 306.06805801 C47.85530873 285.50229617 -46.20900154 284.36593249 -136.63034058 308.98407364 C-141.2119474 310.33706173 -144.58586052 310.53353701 -149.21725464 309.31805801 C-151.70432996 307.89364215 -153.91318986 306.4865294 -156.21725464 304.81805801 C-157.54215978 303.89862167 -158.86903722 302.98202185 -160.19772339 302.06805801 C-160.86723022 301.60528458 -161.53673706 301.14251114 -162.22653198 300.66571426 C-167.71962728 296.94706255 -173.47664869 293.63627 -179.21725464 290.31805801 C-179.88531128 289.93182266 -180.55336792 289.54558731 -181.2416687 289.14764786 C-217.95803178 268.0620637 -265.22012784 242.85659657 -309.21725464 249.31805801 C-328.68307406 291.69497463 -332.95802159 342.9697121 -321.71725464 388.06805801 C-321.51011841 388.90047012 -321.30298218 389.73288223 -321.08956909 390.59051895 C-320.19418157 394.04842194 -319.24433566 397.254433 -317.84225464 400.54852676 C-316.64587149 403.42732371 -315.97431855 405.20275991 -316.21725464 408.31805801 C-318.89407061 412.58133722 -322.18361593 416.02200858 -325.66403198 419.63544083 C-328.08641642 422.25962718 -330.16223119 425.08943757 -332.21725464 428.00555801 C-332.62081177 428.5778212 -333.0243689 429.15008438 -333.44015503 429.73968887 C-354.46945342 460.06649998 -368.57520389 493.78648038 -374.21725464 530.31805801 C-374.48541992 531.93430069 -374.48541992 531.93430069 -374.75900269 533.58319473 C-376.69007663 546.6594469 -376.5692996 559.7491477 -376.52975464 572.94305801 C-376.52751892 574.7758783 -376.52751892 574.7758783 -376.52523804 576.64572525 C-376.48481713 595.05699676 -375.92175741 613.08214714 -373.21725464 631.31805801 C-373.07271851 632.35156387 -372.92818237 633.38506973 -372.77926636 634.44989395 C-366.40357661 679.42568986 -352.18848867 724.92738899 -324.21725464 761.31805801 C-323.52889526 762.21782364 -322.84053589 763.11758926 -322.13131714 764.04462051 C-310.16039101 779.32766059 -296.76157035 792.73635705 -281.21725464 804.31805801 C-280.66344116 804.73797012 -280.10962769 805.15788223 -279.53903198 805.59051895 C-229.28737921 843.60195515 -166.18885918 855.73561334 -105.21725464 864.31805801 C-106.61344711 867.24015616 -107.85953318 869.09852849 -110.27975464 871.25555801 C-125.57175325 886.23029524 -134.67001754 908.73141246 -139.46725464 929.25555801 C-139.63797485 929.97324356 -139.80869507 930.69092911 -139.98458862 931.4303627 C-140.65548232 934.36026257 -141.20911888 937.17280501 -141.37741089 940.17743301 C-141.54803373 942.78489998 -141.73643715 944.1537863 -143.21725464 946.31805801 C-147.92859824 949.18818688 -152.97806141 950.72508213 -158.21725464 952.31805801 C-159.02791382 952.57715958 -159.838573 952.83626114 -160.67379761 953.10321426 C-196.3021912 964.44730574 -233.42779627 965.76612761 -267.43478394 948.5397377 C-277.86771138 943.01408856 -286.66355989 935.37630877 -295.21725464 927.31805801 C-295.88112183 926.71864395 -296.54498901 926.11922989 -297.22897339 925.50165176 C-306.16651663 917.10797526 -312.90212583 906.62138787 -319.21725464 896.19305801 C-323.85324607 888.55491289 -329.2817327 881.97247857 -335.21725464 875.31805801 C-335.82053589 874.59360489 -336.42381714 873.86915176 -337.04537964 873.12274551 C-353.9205899 852.8888769 -377.48470786 838.16576869 -403.96725464 835.50555801 C-414.6888225 834.93500895 -425.95136451 835.45596426 -435.21725464 841.31805801 C-436.54850464 842.44930801 -436.54850464 842.44930801 -436.65475464 845.38055801 C-435.7576945 853.45409927 -429.18328106 858.74882753 -423.32272339 863.90008926 C-419.59961746 866.79896042 -415.70738302 869.3062552 -411.71725464 871.81805801 C-404.9208036 876.09930449 -398.8769666 880.56975925 -393.21725464 886.31805801 C-392.4244812 887.11212051 -391.63170776 887.90618301 -390.81491089 888.72430801 C-370.37655473 910.16359473 -355.18037689 938.42727682 -344.04440308 965.66571426 C-333.47055747 991.24863555 -313.48258447 1010.45024398 -288.24752808 1021.47821426 C-273.6930055 1027.49884409 -258.79658486 1031.15477429 -243.21725464 1033.31805801 C-242.49054565 1033.42118301 -241.76383667 1033.52430801 -241.0151062 1033.63055801 C-232.17267349 1034.69912994 -223.23522914 1034.55915976 -214.34225464 1034.56805801 C-213.02032608 1034.57056564 -213.02032608 1034.57056564 -211.67169189 1034.57312393 C-192.58241077 1034.57528484 -174.05470348 1032.83828627 -155.21408081 1029.69842911 C-152.18122892 1029.31348546 -149.27091274 1029.25257164 -146.21725464 1029.31805801 C-145.56090753 1057.49908924 -145.08445725 1085.68181806 -144.9850769 1113.87054825 C-144.97475639 1116.70136466 -144.95736407 1119.53199919 -144.93380737 1122.36273575 C-144.90120618 1126.35442214 -144.89390384 1130.34577187 -144.88912964 1134.33758926 C-144.87682312 1135.5198056 -144.8645166 1136.70202194 -144.85183716 1137.92006302 C-144.88123381 1148.92295984 -146.98683047 1156.14159962 -154.70553589 1164.14618301 C-161.88362087 1170.35304966 -170.94185966 1171.6228355 -180.21725464 1171.31805801 C-188.98365232 1170.32191755 -196.9896972 1167.52080379 -205.21725464 1164.44305801 C-206.18868912 1164.08291107 -206.18868912 1164.08291107 -207.17974854 1163.71548843 C-221.13567272 1158.53115407 -234.7228123 1152.60436459 -248.21725464 1146.31805801 C-249.27783081 1145.8269252 -250.33840698 1145.33579239 -251.43112183 1144.82977676 C-280.61967519 1131.26036649 -308.72940535 1115.63787915 -335.21725464 1097.31805801 C-335.8785437 1096.86253555 -336.53983276 1096.40701309 -337.22116089 1095.93768692 C-352.03731069 1085.70138903 -366.40901461 1074.88220632 -380.21725464 1063.31805801 C-380.72176147 1062.89846817 -381.22626831 1062.47887833 -381.74606323 1062.04657364 C-389.27605894 1055.781105 -396.5877378 1049.32439207 -403.76412964 1042.65790176 C-405.15411541 1041.3762751 -406.560343 1040.11233097 -407.96725464 1038.84930801 C-414.50918212 1032.96157328 -420.79636865 1026.84418209 -427.02975464 1020.63055801 C-428.23063721 1019.43656387 -428.23063721 1019.43656387 -429.45578003 1018.21844864 C-433.69070487 1013.9724942 -437.76669463 1009.64838928 -441.677948 1005.10248184 C-443.76203397 1002.68652873 -445.92733465 1000.34906568 -448.09225464 998.00555801 C-452.13004786 993.57309327 -455.99032898 989.04063625 -459.75241089 984.37274551 C-461.55810639 982.13494222 -463.37704776 979.91323902 -465.21334839 977.70087051 C-493.68626084 943.27839427 -517.72395775 904.56657576 -537.20016479 864.40985489 C-537.91105154 862.94781033 -538.62731454 861.4883731 -539.34762573 860.03094864 C-575.60770123 786.65064044 -597.17336586 701.76413932 -597.42037964 619.77118301 C-597.42744304 618.3184951 -597.43457573 616.86580753 -597.44177246 615.41312027 C-597.46129334 610.79809431 -597.46646435 606.18312139 -597.46725464 601.56805801 C-597.46754921 600.78156624 -597.46784378 599.99507446 -597.46814728 599.1847496 C-597.4708542 554.46426693 -597.4708542 554.46426693 -594.49588013 532.39227676 C-594.19361136 530.14204636 -593.90420755 527.89034137 -593.61520386 525.63837051 C-584.62520964 456.44863197 -564.47431673 390.69142426 -533.21725464 328.31805801 C-532.66924194 327.2194545 -532.12122925 326.12085098 -531.55661011 324.98895645 C-511.40629854 284.78523894 -485.90349749 247.07577171 -456.61764526 212.95672989 C-455.20928862 211.30873655 -453.81368606 209.65066125 -452.42037964 207.98993301 C-441.31153158 194.80078343 -429.3817509 182.40752091 -417.21725464 170.19305801 C-416.44051392 169.41164444 -415.66377319 168.63023087 -414.86349487 167.82513809 C-410.70582915 163.67909221 -406.46223878 159.69940887 -402.01266479 155.86835098 C-399.59382287 153.77973985 -397.25204683 151.61147413 -394.90475464 149.44305801 C-389.50234007 144.52234022 -383.91556605 139.89013248 -378.21725464 135.31805801 C-377.09704947 134.40580512 -375.97727759 133.49301998 -374.85787964 132.57977676 C-349.82443274 112.23988751 -323.08119323 94.53175638 -295.21725464 78.31805801 C-294.43785522 77.86269669 -293.65845581 77.40733536 -292.85543823 76.9381752 C-225.52759543 37.84262312 -149.56712555 13.74219792 -72.46725464 4.00555801 C-71.30580933 3.85828262 -70.14436401 3.71100723 -68.94772339 3.55926895 C-65.04165234 3.09750474 -61.13233395 2.69360829 -57.21725464 2.31805801 C-55.89973709 2.18885468 -55.89973709 2.18885468 -54.55560303 2.05704117 C-36.36421584 0.32309648 -18.25521751 -0.04643987 0 0 Z " fill="#1A1E22" transform="translate(597.2172546386719,-0.3180580139160156)"/>
</svg>
